<svg width="16" height="16" viewBox="0 0 16 16" fill="none" xmlns="http://www.w3.org/2000/svg">
<path d="M13.8388 6.6519C13.7361 6.54759 13.5969 6.48899 13.4517 6.48899C13.3066 6.48899 13.1673 6.54759 13.0647 6.6519L7.10173 12.7386C6.84755 12.997 6.54579 13.202 6.21368 13.3418C5.88156 13.4817 5.5256 13.5536 5.16611 13.5537C4.44008 13.5537 3.74378 13.2606 3.23037 12.7389C2.71696 12.2172 2.4285 11.5095 2.42844 10.7716C2.42839 10.0337 2.71676 9.32597 3.23009 8.80415L9.00525 2.91051C9.31407 2.60163 9.73046 2.4293 10.1637 2.43104C10.597 2.43278 11.012 2.60846 11.3184 2.9198C11.6248 3.23115 11.7978 3.65294 11.7996 4.0933C11.8014 4.53366 11.632 4.95691 11.3281 5.27086L5.55297 11.1645C5.44881 11.2659 5.31015 11.3225 5.16591 11.3225C5.02168 11.3225 4.88301 11.2659 4.77886 11.1645C4.67623 11.0602 4.61857 10.9187 4.61857 10.7711C4.61857 10.6236 4.67623 10.4821 4.77886 10.3777L9.9206 5.12786C10.0203 5.02292 10.0755 4.88236 10.0743 4.73647C10.073 4.59058 10.0154 4.45102 9.91394 4.34785C9.81243 4.24469 9.67512 4.18617 9.53158 4.1849C9.38804 4.18363 9.24975 4.23972 9.1465 4.34107L4.00475 9.59093C3.85221 9.74594 3.73121 9.92997 3.64865 10.1325C3.5661 10.3351 3.52361 10.5522 3.52361 10.7714C3.52361 10.9906 3.5661 11.2077 3.64865 11.4103C3.73121 11.6128 3.85221 11.7968 4.00475 11.9518C4.31769 12.2554 4.73363 12.4247 5.16619 12.4247C5.59875 12.4247 6.01468 12.2554 6.32762 11.9518L12.1022 6.05764C12.6048 5.53366 12.884 4.82953 12.8794 4.09779C12.8748 3.36605 12.5867 2.66561 12.0776 2.14822C11.5685 1.63083 10.8793 1.33814 10.1593 1.33355C9.43936 1.32897 8.74661 1.61286 8.23114 2.12373L2.45599 8.01737C1.73727 8.74785 1.3335 9.7386 1.3335 10.7717C1.3335 11.8047 1.73727 12.7955 2.45599 13.526C3.1747 14.2564 4.14949 14.6668 5.16591 14.6668C6.18233 14.6668 7.15712 14.2564 7.87584 13.526L13.8388 7.44091C13.8899 7.3892 13.9305 7.32773 13.9582 7.26003C13.9859 7.19233 14.0002 7.11973 14.0002 7.04641C14.0002 6.97309 13.9859 6.90049 13.9582 6.83278C13.9305 6.76508 13.8899 6.70361 13.8388 6.6519V6.6519Z" fill="black" fill-opacity="0.38"/>
</svg>
