<svg width="1em" height="1em" viewBox="0 0 20 20" fill="none" xmlns="http://www.w3.org/2000/svg">
  <path fill-rule="evenodd" clip-rule="evenodd" d="M2.0835 6.49929C2.0835 4.46437 3.12516 2.71675 5.10183 2.31119C7.07766 1.90484 8.57933 2.04532 9.82683 2.71834C11.0752 3.39135 10.7177 4.385 12.0002 5.11437C13.2835 5.84453 15.3477 4.7477 16.696 6.20246C18.1077 7.72548 18.1002 10.0636 18.1002 11.554C18.1002 17.2175 14.9277 17.6667 10.0918 17.6667C5.256 17.6667 2.0835 17.2747 2.0835 11.554V6.49929Z" stroke="black" stroke-linecap="round" stroke-linejoin="round"/>
  <path d="M9.93009 12.5L9.93009 7.5" stroke="black" stroke-linecap="round" stroke-linejoin="round"/>
  <path d="M7.5 14.5837L12.5 14.5837" stroke="black" stroke-linecap="round" stroke-linejoin="round"/>
  <path d="M7.5 10.0605L9.93 12.5005L12.36 10.0605" stroke="black" stroke-linecap="round" stroke-linejoin="round"/>
  </svg>
